# xmcd
#
# Track frame offsets: 
#        150
#        12437
#        24785
#        33662
#        43982
#        57825
#        68265
#        79965
#        92312
#        102385
#        115982
#        125845
#        136865
#        149837
#        158987
#        175845
#        190120
#        202105
#        213987
#        229412
#        239040
#        253115
#
# Disc length: 3570 seconds
#
# Revision: 4
# Processed by: cddbd v1.5.2PL0 Copyright (c) Steve Scherf et al.
# Submitted via: ExactAudioCopyFreeDBPlugin 1.0
#
DISCID=440df016
DTITLE=Sonny Boy Williamson - The Essential Sonny Boy Williamson (Disc
DTITLE=2)
DYEAR=1993
DGENRE=Blues
TTITLE0=Cool Disposition
TTITLE1=Santa Claus
TTITLE2=Checkin' Up On My Baby
TTITLE3=Temperature 110
TTITLE4=Lonesome Cabin
TTITLE5=Somebody Help Me
TTITLE6=Down Child
TTITLE7=Trust My Baby
TTITLE8=Too Close Together
TTITLE9=Too Young To Die
TTITLE10=She's My Baby
TTITLE11=Stop Right Now
TTITLE12=Too Old To Think
TTITLE13=One Way Out
TTITLE14=Nine Below Zero
TTITLE15=Help Me
TTITLE16=Bye Bye Bird
TTITLE17=Bring It On Home
TTITLE18=Decoration Day
TTITLE19=Trying To Get Back On My Feet
TTITLE20=Close To Me
TTITLE21=I Can't Be Alone
EXTD=
EXTT0=
EXTT1=
EXTT2=
EXTT3=
EXTT4=
EXTT5=
EXTT6=
EXTT7=
EXTT8=
EXTT9=
EXTT10=
EXTT11=
EXTT12=
EXTT13=
EXTT14=
EXTT15=
EXTT16=
EXTT17=
EXTT18=
EXTT19=
EXTT20=
EXTT21=
PLAYORDER=
